<mxfile host="app.diagrams.net" modified="2024-05-06T12:10:21.313Z" agent="Mozilla/5.0 (Windows NT 10.0; Win64; x64) AppleWebKit/537.36 (KHTML, like Gecko) Chrome/124.0.0.0 Safari/537.36 Edg/124.0.0.0" etag="LevVLMprk5mcT9YvcVr9" version="24.0.7" type="device">
  <diagram name="Page-1" id="bMXPU6FT7qWYjGNhmpPr">
    <mxGraphModel dx="878" dy="549" grid="1" gridSize="10" guides="1" tooltips="1" connect="1" arrows="1" fold="1" page="1" pageScale="1" pageWidth="850" pageHeight="1100" math="0" shadow="0">
      <root>
        <mxCell id="0" />
        <mxCell id="1" parent="0" />
        <mxCell id="b7tsg3YcPDE0hYMHNrAX-28" style="edgeStyle=orthogonalEdgeStyle;rounded=0;orthogonalLoop=1;jettySize=auto;html=1;" edge="1" parent="1" source="b7tsg3YcPDE0hYMHNrAX-2" target="b7tsg3YcPDE0hYMHNrAX-5">
          <mxGeometry relative="1" as="geometry" />
        </mxCell>
        <mxCell id="b7tsg3YcPDE0hYMHNrAX-2" value="CHUNK #1" style="rounded=1;whiteSpace=wrap;html=1;" vertex="1" parent="1">
          <mxGeometry x="220" y="60" width="120" height="60" as="geometry" />
        </mxCell>
        <mxCell id="b7tsg3YcPDE0hYMHNrAX-29" style="edgeStyle=orthogonalEdgeStyle;rounded=0;orthogonalLoop=1;jettySize=auto;html=1;entryX=0;entryY=0.5;entryDx=0;entryDy=0;" edge="1" parent="1" source="b7tsg3YcPDE0hYMHNrAX-3" target="b7tsg3YcPDE0hYMHNrAX-6">
          <mxGeometry relative="1" as="geometry" />
        </mxCell>
        <mxCell id="b7tsg3YcPDE0hYMHNrAX-3" value="CHUNK #2" style="rounded=1;whiteSpace=wrap;html=1;" vertex="1" parent="1">
          <mxGeometry x="220" y="140" width="120" height="60" as="geometry" />
        </mxCell>
        <mxCell id="b7tsg3YcPDE0hYMHNrAX-30" style="edgeStyle=orthogonalEdgeStyle;rounded=0;orthogonalLoop=1;jettySize=auto;html=1;entryX=0;entryY=0.5;entryDx=0;entryDy=0;" edge="1" parent="1" source="b7tsg3YcPDE0hYMHNrAX-4" target="b7tsg3YcPDE0hYMHNrAX-7">
          <mxGeometry relative="1" as="geometry" />
        </mxCell>
        <mxCell id="b7tsg3YcPDE0hYMHNrAX-4" value="CHUNK #n" style="rounded=1;whiteSpace=wrap;html=1;" vertex="1" parent="1">
          <mxGeometry x="220" y="280" width="120" height="60" as="geometry" />
        </mxCell>
        <mxCell id="b7tsg3YcPDE0hYMHNrAX-31" style="edgeStyle=orthogonalEdgeStyle;rounded=0;orthogonalLoop=1;jettySize=auto;html=1;entryX=0;entryY=0.5;entryDx=0;entryDy=0;" edge="1" parent="1" source="b7tsg3YcPDE0hYMHNrAX-5" target="b7tsg3YcPDE0hYMHNrAX-17">
          <mxGeometry relative="1" as="geometry" />
        </mxCell>
        <mxCell id="b7tsg3YcPDE0hYMHNrAX-5" value="SUMMARY" style="rounded=1;whiteSpace=wrap;html=1;" vertex="1" parent="1">
          <mxGeometry x="440" y="60" width="120" height="60" as="geometry" />
        </mxCell>
        <mxCell id="b7tsg3YcPDE0hYMHNrAX-32" style="edgeStyle=orthogonalEdgeStyle;rounded=0;orthogonalLoop=1;jettySize=auto;html=1;entryX=0;entryY=0.5;entryDx=0;entryDy=0;" edge="1" parent="1" source="b7tsg3YcPDE0hYMHNrAX-6" target="b7tsg3YcPDE0hYMHNrAX-17">
          <mxGeometry relative="1" as="geometry" />
        </mxCell>
        <mxCell id="b7tsg3YcPDE0hYMHNrAX-6" value="SUMMARY" style="rounded=1;whiteSpace=wrap;html=1;" vertex="1" parent="1">
          <mxGeometry x="440" y="140" width="120" height="60" as="geometry" />
        </mxCell>
        <mxCell id="b7tsg3YcPDE0hYMHNrAX-33" style="edgeStyle=orthogonalEdgeStyle;rounded=0;orthogonalLoop=1;jettySize=auto;html=1;entryX=0;entryY=0.5;entryDx=0;entryDy=0;" edge="1" parent="1" source="b7tsg3YcPDE0hYMHNrAX-7" target="b7tsg3YcPDE0hYMHNrAX-17">
          <mxGeometry relative="1" as="geometry" />
        </mxCell>
        <mxCell id="b7tsg3YcPDE0hYMHNrAX-7" value="SUMMARY" style="rounded=1;whiteSpace=wrap;html=1;" vertex="1" parent="1">
          <mxGeometry x="440" y="280" width="120" height="60" as="geometry" />
        </mxCell>
        <mxCell id="b7tsg3YcPDE0hYMHNrAX-24" style="edgeStyle=orthogonalEdgeStyle;rounded=0;orthogonalLoop=1;jettySize=auto;html=1;" edge="1" parent="1" source="b7tsg3YcPDE0hYMHNrAX-13" target="b7tsg3YcPDE0hYMHNrAX-2">
          <mxGeometry relative="1" as="geometry" />
        </mxCell>
        <mxCell id="b7tsg3YcPDE0hYMHNrAX-26" style="edgeStyle=orthogonalEdgeStyle;rounded=0;orthogonalLoop=1;jettySize=auto;html=1;entryX=0;entryY=0.5;entryDx=0;entryDy=0;" edge="1" parent="1" source="b7tsg3YcPDE0hYMHNrAX-13" target="b7tsg3YcPDE0hYMHNrAX-4">
          <mxGeometry relative="1" as="geometry" />
        </mxCell>
        <mxCell id="b7tsg3YcPDE0hYMHNrAX-13" value="Long Text" style="rounded=1;whiteSpace=wrap;html=1;" vertex="1" parent="1">
          <mxGeometry x="70" y="60" width="90" height="280" as="geometry" />
        </mxCell>
        <mxCell id="b7tsg3YcPDE0hYMHNrAX-16" value="Gemini LLM Model" style="rounded=1;whiteSpace=wrap;html=1;" vertex="1" parent="1">
          <mxGeometry x="370" y="60" width="40" height="280" as="geometry" />
        </mxCell>
        <mxCell id="b7tsg3YcPDE0hYMHNrAX-34" value="" style="edgeStyle=orthogonalEdgeStyle;rounded=0;orthogonalLoop=1;jettySize=auto;html=1;" edge="1" parent="1" source="b7tsg3YcPDE0hYMHNrAX-17" target="b7tsg3YcPDE0hYMHNrAX-18">
          <mxGeometry relative="1" as="geometry" />
        </mxCell>
        <mxCell id="b7tsg3YcPDE0hYMHNrAX-17" value="Gemini LLM Model" style="rounded=1;whiteSpace=wrap;html=1;" vertex="1" parent="1">
          <mxGeometry x="600" y="60" width="40" height="280" as="geometry" />
        </mxCell>
        <mxCell id="b7tsg3YcPDE0hYMHNrAX-18" value="Final Summary" style="rounded=1;whiteSpace=wrap;html=1;" vertex="1" parent="1">
          <mxGeometry x="680" y="145" width="70" height="110" as="geometry" />
        </mxCell>
        <mxCell id="b7tsg3YcPDE0hYMHNrAX-19" value="" style="endArrow=none;dashed=1;html=1;dashPattern=1 3;strokeWidth=2;rounded=0;" edge="1" parent="1">
          <mxGeometry width="50" height="50" relative="1" as="geometry">
            <mxPoint x="280" y="270" as="sourcePoint" />
            <mxPoint x="280" y="220" as="targetPoint" />
          </mxGeometry>
        </mxCell>
        <mxCell id="b7tsg3YcPDE0hYMHNrAX-20" value="" style="endArrow=none;dashed=1;html=1;dashPattern=1 3;strokeWidth=2;rounded=0;" edge="1" parent="1">
          <mxGeometry width="50" height="50" relative="1" as="geometry">
            <mxPoint x="500" y="270" as="sourcePoint" />
            <mxPoint x="500" y="220" as="targetPoint" />
            <Array as="points" />
          </mxGeometry>
        </mxCell>
        <mxCell id="b7tsg3YcPDE0hYMHNrAX-25" style="edgeStyle=orthogonalEdgeStyle;rounded=0;orthogonalLoop=1;jettySize=auto;html=1;entryX=0.022;entryY=0.633;entryDx=0;entryDy=0;entryPerimeter=0;" edge="1" parent="1" source="b7tsg3YcPDE0hYMHNrAX-13" target="b7tsg3YcPDE0hYMHNrAX-3">
          <mxGeometry relative="1" as="geometry" />
        </mxCell>
        <mxCell id="b7tsg3YcPDE0hYMHNrAX-36" value="&lt;font style=&quot;font-size: 14px;&quot;&gt;&lt;b&gt;&amp;nbsp; &amp;nbsp; &amp;nbsp; &amp;nbsp; &amp;nbsp; &amp;nbsp; &amp;nbsp; &amp;nbsp; &amp;nbsp; &amp;nbsp; &amp;nbsp; &amp;nbsp; &amp;nbsp; &amp;nbsp; &amp;nbsp;Long document summarization with Workflows and Gemini models&lt;/b&gt;&lt;/font&gt;" style="text;html=1;align=center;verticalAlign=middle;resizable=0;points=[];autosize=1;strokeColor=none;fillColor=none;" vertex="1" parent="1">
          <mxGeometry x="50" width="580" height="30" as="geometry" />
        </mxCell>
      </root>
    </mxGraphModel>
  </diagram>
</mxfile>
